<svg width="12" height="12" viewBox="0 0 12 12" fill="none" xmlns="http://www.w3.org/2000/svg">
<path d="M6 0C2.69156 0 0 2.69156 0 6C0 9.30844 2.69156 12 6 12C9.30844 12 12 9.30844 12 6C12 2.69156 9.30844 0 6 0ZM5.64844 2.94507C5.11359 2.92209 4.58414 2.84692 4.07858 2.7247C4.15933 2.53336 4.24695 2.34961 4.34143 2.17548C4.72906 1.46118 5.20496 0.95993 5.64844 0.778381V2.94507ZM5.64844 3.64874V5.64844H3.45255C3.48349 4.86795 3.61652 4.09314 3.83652 3.38837C4.41953 3.53522 5.03156 3.62411 5.64844 3.64874ZM5.64844 6.35156V8.35126C5.03156 8.37589 4.41953 8.46478 3.83652 8.61163C3.61652 7.90686 3.48349 7.13205 3.45255 6.35156H5.64844ZM5.64844 9.05493V11.2216C5.20496 11.0401 4.72906 10.5388 4.34143 9.82452C4.24695 9.65039 4.15933 9.46664 4.07858 9.2753C4.58414 9.15308 5.11349 9.07791 5.64844 9.05493ZM6.35156 9.05493C6.88641 9.07791 7.41586 9.15308 7.92142 9.2753C7.84067 9.46664 7.75305 9.65039 7.65857 9.82452C7.27094 10.5388 6.79504 11.0401 6.35156 11.2216V9.05493ZM6.35156 8.35126V6.35156H8.54745C8.51651 7.13205 8.38348 7.90686 8.16348 8.61163C7.58047 8.46478 6.96844 8.37589 6.35156 8.35126ZM6.35156 5.64844V3.64874C6.96844 3.62411 7.58047 3.53522 8.16348 3.38837C8.38348 4.09314 8.51651 4.86795 8.54745 5.64844H6.35156ZM6.35156 2.94507V0.778381C6.79504 0.95993 7.27094 1.46118 7.65857 2.17548C7.75305 2.34961 7.84067 2.53336 7.92142 2.7247C7.41586 2.84692 6.88641 2.92209 6.35156 2.94507ZM8.27655 1.84012C8.10049 1.51566 7.90924 1.22964 7.70764 0.985657C8.41058 1.22571 9.04733 1.60977 9.58282 2.10233C9.2774 2.26593 8.94827 2.40802 8.60202 2.52676C8.50378 2.28818 8.3952 2.05865 8.27655 1.84012ZM3.72345 1.84012C3.6048 2.05865 3.49622 2.28818 3.39798 2.52676C3.05173 2.40802 2.7226 2.26584 2.41718 2.10233C2.95267 1.60977 3.58942 1.22571 4.29236 0.985657C4.09076 1.22964 3.8996 1.51556 3.72345 1.84012ZM3.16013 3.18759C2.92017 3.95526 2.77908 4.79214 2.74869 5.64844H0.715118C0.790375 4.50577 1.22919 3.46078 1.9173 2.62894C2.29916 2.84793 2.71738 3.03525 3.16013 3.18759ZM2.74869 6.35156C2.77908 7.20795 2.92017 8.04474 3.16013 8.81241C2.71738 8.96475 2.29916 9.15207 1.9173 9.37106C1.22919 8.53922 0.790375 7.49423 0.715118 6.35156H2.74869ZM3.39798 9.47324C3.49622 9.71182 3.6048 9.94135 3.72345 10.1599C3.8996 10.4843 4.09076 10.7704 4.29236 11.0143C3.58942 10.7743 2.95267 10.3902 2.41727 9.89767C2.7225 9.73416 3.05173 9.59198 3.39798 9.47324ZM8.27655 10.1599C8.3952 9.94135 8.50378 9.71182 8.60202 9.47324C8.94827 9.59198 9.2774 9.73416 9.58282 9.89767C9.04733 10.3902 8.41058 10.7743 7.70764 11.0143C7.90924 10.7704 8.1004 10.4844 8.27655 10.1599ZM8.83987 8.81241C9.07983 8.04474 9.22092 7.20786 9.25131 6.35156H11.2849C11.2096 7.49423 10.7708 8.53922 10.0827 9.37106C9.70084 9.15207 9.28262 8.96475 8.83987 8.81241ZM9.25131 5.64844C9.22092 4.79205 9.07983 3.95526 8.83987 3.18759C9.28262 3.03525 9.70084 2.84793 10.0827 2.62894C10.7708 3.46078 11.2096 4.50577 11.2849 5.64844H9.25131Z" fill="#F6762C"/>
</svg>
