<svg width="12" height="10" viewBox="0 0 12 10" fill="none" xmlns="http://www.w3.org/2000/svg">
<path d="M10.9453 0H1.05469C0.473859 0 0 0.473344 0 1.05469V8.08594C0 8.66531 0.47175 9.14062 1.05469 9.14062H10.9453C11.5247 9.14062 12 8.66887 12 8.08594V1.05469C12 0.475313 11.5282 0 10.9453 0ZM10.7997 0.703125L6.02236 5.48046L1.20373 0.703125H10.7997ZM0.703125 7.94034V1.19693L4.08935 4.55412L0.703125 7.94034ZM1.2003 8.4375L4.58866 5.04914L5.77594 6.22622C5.91337 6.36248 6.13516 6.36204 6.27204 6.22514L7.42969 5.06749L10.7997 8.4375H1.2003ZM11.2969 7.94032L7.92687 4.57031L11.2969 1.20028V7.94032Z" fill="#F6762C"/>
</svg>
