<svg width="47" height="46" viewBox="0 0 47 46" fill="none" xmlns="http://www.w3.org/2000/svg">
<circle opacity="0.1" cx="25.5" cy="21.5" r="21.5" fill="#F6762C"/>
<path d="M12.8079 14.6927H4.26931C3.08325 14.6927 2.07531 15.1079 1.24501 15.9378C0.415108 16.768 0 17.7759 0 18.9621V27.5004C0 28.6864 0.414874 29.6942 1.24501 30.5242C2.07523 31.3541 3.08348 31.7694 4.26931 31.7694H9.25006C9.84281 31.7694 10.3469 31.977 10.762 32.3919C11.1772 32.8067 11.3846 33.3109 11.3846 33.9042V34.6153C11.3846 36.1867 10.8286 37.5278 9.71696 38.6398C8.6052 39.7513 7.26377 40.3072 5.6922 40.3072H4.26931C3.88364 40.3072 3.55023 40.4484 3.26845 40.7298C2.98691 41.0113 2.84602 41.345 2.84602 41.7304V44.5769C2.84602 44.9617 2.98691 45.296 3.26845 45.5775C3.55046 45.8589 3.88356 46.0002 4.26931 46.0002H5.69228C7.2341 46.0002 8.70536 45.6995 10.1063 45.0994C11.5071 44.4992 12.7189 43.6873 13.7418 42.6644C14.7645 41.6414 15.5761 40.4299 16.1764 39.029C16.7767 37.6281 17.0769 36.157 17.0769 34.6154V18.9617C17.0769 17.7756 16.6618 16.7677 15.8318 15.9378C15.0018 15.1078 13.9937 14.6927 12.8079 14.6927Z" fill="#F6762C"/>
<path d="M35.7546 15.9377C34.9247 15.1077 33.9167 14.6926 32.7306 14.6926H24.1923C23.0062 14.6926 21.9983 15.1077 21.1683 15.9377C20.3384 16.7679 19.9235 17.7758 19.9235 18.9619V27.5002C19.9235 28.6863 20.3384 29.6941 21.1683 30.5241C21.9983 31.354 23.0063 31.7692 24.1923 31.7692H29.1731C29.7658 31.7692 30.2703 31.9769 30.6854 32.3918C31.1 32.8068 31.3079 33.3108 31.3079 33.904V34.6152C31.3079 36.1866 30.7519 37.5277 29.64 38.6397C28.5284 39.7511 27.1872 40.3071 25.6155 40.3071H24.1923C23.8069 40.3071 23.4732 40.4483 23.1918 40.7297C22.9101 41.0112 22.769 41.3448 22.769 41.7303V44.5768C22.769 44.9616 22.9101 45.2958 23.1918 45.5774C23.4731 45.8588 23.8069 46 24.1923 46H25.6155C27.1571 46 28.6283 45.6994 30.0294 45.0993C31.43 44.499 32.6416 43.6872 33.6646 42.6643C34.6874 41.6413 35.4996 40.4295 36.0995 39.0289C36.6997 37.6283 37.0001 36.1568 37.0001 34.6153V18.9616C36.9998 17.7755 36.5851 16.7676 35.7546 15.9377Z" fill="#F6762C"/>
</svg>
